<?xml version="1.0" standalone="no"?>
<!DOCTYPE svg PUBLIC "-//W3C//DTD SVG 20010904//EN"
 "http://www.w3.org/TR/2001/REC-SVG-20010904/DTD/svg10.dtd">
<svg version="1.0" xmlns="http://www.w3.org/2000/svg"
 width="1024.000000pt" height="1024.000000pt" viewBox="0 0 1024.000000 1024.000000"
 preserveAspectRatio="xMidYMid meet">
<metadata>
Created by potrace 1.14, written by Peter Selinger 2001-2017
</metadata>
<g transform="translate(0.000000,1024.000000) scale(0.100000,-0.100000)"
fill="#000000" stroke="none">
<path d="M3987 9174 c-1 -1 -63 -4 -137 -8 -74 -3 -152 -8 -172 -11 -21 -3
-53 -7 -70 -9 -443 -54 -954 -259 -1327 -533 -169 -124 -408 -344 -514 -474
-299 -364 -497 -745 -607 -1176 -34 -129 -66 -304 -75 -408 -4 -38 -9 -88 -11
-110 -12 -101 -5 -405 12 -550 84 -725 460 -1431 1009 -1895 28 -23 61 -52 75
-64 101 -86 355 -248 519 -330 147 -74 457 -194 544 -210 6 -1 38 -8 70 -16
55 -13 57 -15 67 -54 111 -440 307 -835 582 -1173 64 -79 91 -109 195 -218 48
-50 203 -188 278 -247 298 -234 687 -428 1054 -524 61 -16 296 -63 342 -68 31
-4 65 -8 75 -10 115 -22 593 -23 674 -1 8 2 39 7 69 10 128 14 326 61 546 129
6 2 23 8 38 14 16 7 32 12 36 12 4 0 50 18 102 41 501 215 880 510 1228 955
18 23 138 201 161 239 219 364 369 811 406 1210 3 33 7 71 10 85 5 31 5 387
-1 453 -45 537 -228 1044 -528 1467 -172 242 -332 409 -617 643 -135 111 -449
292 -661 380 -135 57 -365 131 -441 144 -22 3 -41 11 -43 17 -1 6 -7 29 -13
51 -82 313 -179 547 -333 808 -202 339 -486 648 -818 885 -439 314 -999 512
-1521 538 -169 9 -201 10 -203 8z m308 -228 c22 -3 60 -8 83 -12 24 -3 53 -7
65 -10 12 -2 39 -6 62 -10 70 -10 296 -71 403 -109 233 -81 497 -217 677 -347
151 -110 362 -302 486 -443 148 -168 320 -437 413 -644 69 -152 138 -345 151
-422 l6 -32 -40 7 c-82 13 -221 20 -376 20 -144 0 -330 -10 -344 -18 -3 -2
-35 -7 -71 -10 -258 -27 -672 -161 -950 -309 -150 -80 -336 -201 -445 -288
-139 -113 -405 -369 -405 -390 0 -5 -154 -9 -342 -9 l-343 0 0 245 c0 158 3
245 10 246 5 1 163 2 350 3 357 2 368 3 399 48 35 50 8 138 -48 158 -19 7
-155 10 -366 10 l-335 -1 1 70 c2 115 67 283 152 396 177 234 434 356 717 342
130 -7 228 -32 342 -88 98 -48 155 -90 243 -176 79 -78 87 -83 128 -83 68 0
117 61 101 128 -16 71 -191 226 -349 309 -70 37 -198 86 -251 97 -112 23 -154
28 -233 29 -291 4 -550 -99 -756 -302 -128 -126 -210 -258 -265 -426 -31 -95
-50 -190 -54 -282 -1 -10 -41 -13 -167 -13 -212 0 -227 -6 -257 -101 -8 -24
19 -76 49 -95 23 -16 51 -18 198 -19 l171 0 3 -248 2 -247 -169 0 c-107 0
-179 -4 -195 -12 -72 -32 -78 -140 -11 -184 20 -13 57 -16 200 -17 l175 -1 1
-61 c3 -257 116 -527 297 -712 l24 -24 -26 -92 c-54 -193 -79 -328 -100 -541
-18 -182 -13 -470 10 -638 3 -21 1 -38 -4 -38 -23 0 -197 55 -297 94 -248 97
-486 234 -710 409 -100 77 -330 306 -415 412 -166 205 -351 527 -430 750 -18
50 -36 99 -41 110 -40 98 -102 382 -126 580 -9 80 -10 453 -1 535 17 146 20
168 33 235 30 152 57 252 101 385 223 665 710 1229 1336 1547 63 32 127 63
144 70 16 7 52 22 79 33 99 43 340 118 425 134 14 2 61 11 105 20 106 21 136
25 230 32 44 4 82 8 84 10 5 5 422 -4 466 -10z m2120 -2220 c80 -4 279 -28
330 -40 6 -2 28 -6 50 -11 58 -11 247 -62 313 -85 195 -65 392 -161 606 -293
43 -26 215 -153 271 -200 87 -73 291 -280 361 -367 182 -226 321 -464 423
-723 43 -109 93 -263 106 -323 2 -10 10 -48 19 -84 21 -89 24 -108 43 -240 24
-172 23 -607 -2 -725 -3 -11 -7 -38 -10 -60 -3 -22 -12 -74 -21 -115 -9 -41
-17 -82 -19 -90 -33 -159 -148 -466 -237 -629 -83 -155 -222 -367 -285 -436
-10 -11 -40 -47 -67 -80 -210 -254 -553 -518 -876 -672 -244 -117 -538 -210
-755 -239 -27 -3 -59 -8 -70 -10 -180 -34 -641 -23 -857 22 -37 7 -82 16 -100
19 -87 15 -301 84 -443 142 -221 90 -484 245 -675 399 -123 99 -315 291 -410
410 -325 406 -534 908 -586 1404 -3 36 -8 79 -10 95 -5 39 -5 366 0 425 5 55
15 144 22 185 3 17 7 44 10 60 2 17 7 41 9 55 3 14 7 36 10 50 29 151 103 379
178 548 343 767 1028 1338 1842 1537 106 26 175 39 260 51 22 3 51 7 65 10 14
2 84 7 155 10 72 4 131 7 132 8 2 2 92 -2 218 -8z m-2585 -1022 c0 -1 -26 -42
-59 -90 -90 -137 -220 -381 -246 -463 -7 -22 -9 -21 -42 25 -53 73 -110 199
-132 289 -24 97 -34 232 -18 238 12 4 497 5 497 1z"/>
<path d="M6203 5925 c-59 -25 -66 -48 -67 -222 l-1 -156 -111 -3 c-170 -4
-304 -45 -437 -132 -305 -199 -442 -575 -335 -922 108 -348 432 -580 805 -575
43 1 74 -3 76 -9 2 -6 3 -276 3 -601 l-1 -590 -97 -1 c-216 -4 -383 65 -545
223 -47 45 -94 85 -105 89 -38 12 -86 -5 -113 -40 -43 -57 -33 -95 52 -186 98
-106 263 -214 386 -251 129 -40 192 -49 348 -52 l74 -2 1 -115 c0 -94 4 -121
19 -147 35 -60 105 -71 157 -24 l33 29 3 131 4 130 114 0 c64 0 118 2 122 5 4
2 29 7 55 10 57 8 172 48 236 83 295 162 464 492 420 823 -41 309 -266 577
-560 669 -59 18 -187 43 -206 40 -4 -1 -47 -1 -95 0 l-88 1 0 600 0 600 73 2
c195 4 230 1 327 -31 117 -39 217 -108 300 -209 65 -80 116 -97 175 -58 58 38
57 112 -2 184 -132 164 -298 266 -518 318 -16 4 -97 8 -180 10 -82 1 -156 3
-162 3 -10 1 -13 38 -13 152 0 94 -4 158 -12 172 -14 28 -47 57 -64 57 -7 0
-18 2 -26 5 -7 2 -27 -2 -45 -10z m-67 -1195 l0 -600 -86 0 c-307 0 -548 194
-611 491 -10 50 -8 196 4 239 2 8 7 29 12 45 19 72 94 196 154 255 31 31 127
97 166 115 76 35 159 52 260 54 l101 2 0 -601z m500 -833 c157 -37 318 -166
387 -307 52 -107 65 -165 65 -274 0 -105 -16 -184 -55 -260 -74 -146 -176
-242 -319 -300 -76 -31 -104 -36 -246 -42 l-118 -6 0 604 0 605 113 -3 c61 -1
140 -9 173 -17z"/>
</g>
</svg>
